<svg id="Layer_1" data-name="Layer 1" xmlns="http://www.w3.org/2000/svg" viewBox="0 0 1000 679"><title>Disney Castle</title><g id="layer1"><g id="g9058"><path id="path3" d="M529.2,679.7c64.1-47.3,117.4-1,120.3-1H965.1c-6.9-6.9-19.8-29.6-24.7-42.4H239.2c-8.8,13.8-17.8,34.5-27.6,43.4H529.2Z" transform="translate(-93.2 -114.6)"/><path id="path5" d="M876.3,579.1H348.7c1,7.9-5.9,42.4-6.9,43.3H933.5c-12.8-26.6-15.8-37.5-19.7-43.3H900c-3,7.9-10.9,16.8-10.9,16.8s-8.9-6.9-12.8-16.8h0Z" transform="translate(-93.2 -114.6)"/><path id="path7" d="M596.8,262.3v-6.4h-3.5c-137.7,0-262.6,56.4-353.3,147.2S93.2,619.3,93.2,757.4q0,18.2,1.3,36.2h6.4c-0.9-12-1.3-24-1.3-36.2,0-136.3,55.5-260.1,144.9-349.8S457.3,262.3,593.2,262.3h3.6Z" transform="translate(-93.2 -114.6)"/><path id="path9" d="M779.7,525.9H744.2v7.9h-2l-3.9-7.9H464.1l-6.9,27.6H433.5s-1.9,0-1.9-4a33.7,33.7,0,0,1,9.8-23.6H336.9c3,4.9,8.8,14.8,10.8,26.6,0.9,4.9,1.9,13.8,1.9,13.8H797.4c-10.9-12.8-17.8-29.6-17.8-40.4h0Z" transform="translate(-93.2 -114.6)"/><path id="path11" d="M727.3,274.2l-1.4,6.3a493.9,493.9,0,0,1,216,127.1c89.5,89.7,144.8,213.5,144.8,349.9q0,18.3-1.3,36.1h6.5c0.8-12,1.3-24,1.3-36.2,0-138.2-56.2-263.5-146.8-354.4A501.3,501.3,0,0,0,727.3,274.2h0Z" transform="translate(-93.2 -114.6)"/><path id="path13" d="M235.3,694.5V732H495.7s7.9-22.7,18.7-37.5H235.3Z" transform="translate(-93.2 -114.6)"/><path id="path15" d="M939.4,693.6H663.3c4,3.9,15.8,24.7,20.8,38.4H939.4V693.6h0Z" transform="translate(-93.2 -114.6)"/><path id="path17" d="M225.5,793.2c0,1,262.3,0,262.3,0s1-28.6,4-41.4H235.3c0,7.9-3.9,32.5-9.8,41.4h0Z" transform="translate(-93.2 -114.6)"/><path id="path19" d="M954.1,793.1c-9.9-12.8-13.8-37.5-13.8-41.4,0,0-251.5,1-251.5,0,1,8.9,4.9,35.5,3,41.4H954.1Z" transform="translate(-93.2 -114.6)"/><path id="path21" d="M718.5,452.9H517.4l4.9,8.9v51.3h213s-13.8-30.6-16.8-60.1h0Z" transform="translate(-93.2 -114.6)"/><path id="path23" d="M519.3,432.2H506.6c3.9,8.9,1,1,4.9,9.8H715.6s-3.9-1.9-6-16.8V391.7l-11.8-4.9V366.1H624v20.7l-12.9,6.9v16.8s-3.9,1-9.9-9.8a91,91,0,0,1-6.9-19.7c-5.9,23.7-10.9,31.5-10.9,31.5-6.9,13.8-13.8,19.8-15.7,19.8h-7.8s-1-6,6.9-12.9l-24.7-53.2h-3.9l-24.7,53.2c6.9,5.9,5.9,12.9,5.9,12.9h0Z" transform="translate(-93.2 -114.6)"/><polygon id="polygon33" points="520.7 143.9 616.4 143.9 567.1 33.4 520.7 143.9"/><path id="path41" d="M613.9,302c0,14.8,9.9,17.8,9.9,17.8l-1,34.5h75V324.7c1-10.8,10.8-4.9,9.8-20.7h-9.8V269.5h-74V302h-9.8Z" transform="translate(-93.2 -114.6)"/><path id="path49" d="M380.3,454.9s-8.8,28.6-33.5,60.1h83.9s-20.8-26.6-34.6-60.1H380.3Z" transform="translate(-93.2 -114.6)"/><path id="path75" d="M815.1,566.3h51.3c-6-10.8-9-19.8-13.9-40.4H830.9c-2,15.7-12.9,34.5-15.8,40.4h0Z" transform="translate(-93.2 -114.6)"/><path id="path77" d="M272.9,579.1c-2,9.9-12.9,36.5-17.8,43.3h49.3c-7.9-7.8-14.8-31.5-18.8-43.3H272.9Z" transform="translate(-93.2 -114.6)"/><path id="path83" d="M745.1,515h34.5s-2.9-26.6,4.9-27.6l-14.7-33.5H755l-15.8,33.5c8.9,3,5.9,27.6,5.9,27.6h0Z" transform="translate(-93.2 -114.6)"/><polygon id="polygon97" points="373.8 400.4 406.4 400.4 390.6 346.1 373.8 400.4"/><polygon id="polygon103" points="448.8 216.9 420.2 223.8 448.8 230.7 448.8 216.9"/><polygon id="polygon105" points="749.5 325.5 720.9 331.4 749.5 338.2 749.5 325.5"/><polygon id="polygon107" points="671.6 277.1 644 284 671.6 290.9 671.6 277.1"/><polygon id="polygon109" points="813.7 405.3 786 412.2 813.7 419.1 813.7 405.3"/><polygon id="polygon111" points="188.5 414.2 160.9 421.1 188.5 428 188.5 414.2"/><polygon id="polygon113" points="569.1 0 541.5 6.9 569.1 12.8 569.1 0"/><polygon id="polygon115" points="296.9 285 269.3 291.9 296.9 297.8 296.9 285"/><polygon id="polygon121" points="748.5 356 740.7 400.4 756.5 400.4 748.5 356"/><polygon id="polygon125" points="661.8 331.4 675.6 332.4 668.7 304.7 661.8 331.4"/><polygon id="polygon129" points="807.7 451.6 817.5 451.6 813.6 432.9 807.7 451.6"/><polygon id="polygon133" points="185.5 439.8 181.5 451.6 190.4 451.6 185.5 439.8"/><polygon id="polygon135" points="290.1 327.4 298.9 327.4 295 315.6 290.1 327.4"/><polygon id="polygon149" points="448.8 244.6 446.8 238.7 444.8 244.6 448.8 244.6"/></g></g></svg>